<?xml version="1.0" encoding="UTF-8" standalone="no"?>
<svg
   width="129.51746"
   height="30.000038"
   viewBox="0 0 129.51746 30.000038"
   fill="none"
   version="1.1"
   id="svg8"
   xmlns="http://www.w3.org/2000/svg"
   xmlns:svg="http://www.w3.org/2000/svg">
  <defs
     id="defs12" />
  <path
     d="m 48.47558,17.451737 h -0.0392 l -2.4653,-9.9517399 h -2.9705 l -2.5166,9.8311399 h -0.0407 l -2.2768,-9.8251099 h -3.1665 l 3.8194,14.4330099 h 3.2132 l 2.4035,-9.8235 h 0.0407 l 2.4457,9.8235 h 3.1529 l 3.8736,-14.4330099 h -3.1121 z m 15.1523,-5.0633 c -0.3038,-0.387 -0.7043,-0.6871 -1.1611,-0.87 -0.603,-0.2275 -1.2451,-0.3335 -1.8893,-0.3122 -0.5774,0.0089 -1.145,0.1508 -1.6586,0.4147 -0.586,0.2937 -1.0719,0.7543 -1.3963,1.3239 h -0.0603 V 7.5060271 h -2.8649 V 21.939037 h 2.8649 v -5.4779 c 0,-1.0646 0.1749,-1.8296 0.5247,-2.295 0.3499,-0.4654 0.9158,-0.6976 1.6979,-0.6966 0.686,0 1.1655,0.2126 1.4339,0.6378 0.2684,0.4252 0.4041,1.0676 0.4041,1.9301 v 5.9016 h 2.8649 v -6.4279 c 0.0045,-0.5939 -0.0532,-1.1867 -0.1719,-1.7687 -0.0932,-0.4893 -0.294,-0.9519 -0.588,-1.354 z m 11.8214,7.224 v -5.4282 c 0,-0.6343 -0.1412,-1.1434 -0.4237,-1.5274 -0.2834,-0.3867 -0.6579,-0.6974 -1.0901,-0.9047 -0.4662,-0.2211 -0.9644,-0.3671 -1.4762,-0.4328 -0.5291,-0.0734 -1.0626,-0.1107 -1.5968,-0.1116 -0.5807,-6e-4 -1.1601,0.0565 -1.7295,0.1704 -0.5445,0.1034 -1.0675,0.2982 -1.547,0.576 -0.4545,0.2649 -0.8415,0.6313 -1.1309,1.0706 -0.3156,0.5042 -0.4905,1.0836 -0.5067,1.6782 h 2.8649 c 0.0543,-0.5654 0.2443,-0.971 0.567,-1.2063 0.3227,-0.2352 0.775,-0.3679 1.342,-0.3679 0.2396,-0.0011 0.479,0.0156 0.7162,0.0498 0.207,0.0275 0.4065,0.0962 0.5865,0.202 0.1705,0.1029 0.3101,0.2498 0.4041,0.4253 0.1113,0.2292 0.1631,0.4828 0.1508,0.7373 0.0148,0.1257 -0.0014,0.2531 -0.0472,0.371 -0.0457,0.118 -0.1196,0.2231 -0.2151,0.306 -0.228,0.1732 -0.4918,0.2932 -0.7721,0.3513 -0.3652,0.0889 -0.7367,0.1499 -1.1112,0.1825 -0.4192,0.0412 -0.8434,0.095 -1.2726,0.1613 -0.4324,0.0681 -0.8608,0.1598 -1.2832,0.2744 -0.4045,0.1044 -0.7876,0.2784 -1.1324,0.5142 -0.338,0.2392 -0.6153,0.5542 -0.8097,0.9198 -0.2239,0.4551 -0.3312,0.9588 -0.3121,1.4656 -0.0125,0.4793 0.0807,0.9555 0.2729,1.3948 0.1709,0.3788 0.4293,0.7116 0.7539,0.971 0.3355,0.2621 0.72,0.4543 1.1309,0.5655 0.4542,0.125 0.9236,0.1864 1.3947,0.1824 0.6433,10e-5 1.283,-0.0949 1.8984,-0.2819 0.6153,-0.1869 1.1723,-0.5285 1.6179,-0.9922 0.0127,0.1732 0.0364,0.3454 0.0709,0.5157 0.0331,0.1675 0.0769,0.3327 0.1312,0.4945 h 2.9101 c -0.1608,-0.2999 -0.2574,-0.6301 -0.2835,-0.9695 -0.0525,-0.4504 -0.0766,-0.9036 -0.0724,-1.3571 z m -2.8648,-1.7189 c -0.0032,0.2165 -0.0198,0.4325 -0.0498,0.6469 -0.0378,0.2816 -0.1306,0.5532 -0.2729,0.7991 -0.1671,0.2812 -0.4039,0.5144 -0.6876,0.677 -0.3086,0.189 -0.7464,0.2835 -1.3133,0.2835 -0.2236,3e-4 -0.4468,-0.0204 -0.6665,-0.0618 -0.2003,-0.0341 -0.3923,-0.1063 -0.5654,-0.2126 -0.1626,-0.1012 -0.2953,-0.2438 -0.3845,-0.4132 -0.1,-0.2006 -0.1487,-0.4228 -0.1418,-0.6468 -0.0082,-0.2309 0.0405,-0.4603 0.1418,-0.668 0.0908,-0.1707 0.2185,-0.3191 0.3739,-0.4342 0.1658,-0.1203 0.3502,-0.2125 0.5458,-0.273 0.2085,-0.0673 0.421,-0.1212 0.6364,-0.1613 0.2291,-0.0392 0.4523,-0.0754 0.686,-0.101 0.2337,-0.0257 0.4524,-0.0619 0.6574,-0.1011 0.1986,-0.0377 0.3945,-0.088 0.5866,-0.1507 0.1666,-0.0516 0.3207,-0.1374 0.4523,-0.2518 z m 8.2252,-9.5400999 h -2.8649 v 3.1347999 h -1.7461 v 1.921 h 1.7371 v 6.1656 c -0.0189,0.4393 0.0713,0.8765 0.2623,1.2726 0.1635,0.3139 0.4123,0.5752 0.7178,0.7539 0.3264,0.183 0.6846,0.3027 1.0555,0.3528 0.4178,0.0618 0.8397,0.0921 1.262,0.0905 0.285,0 0.573,0 0.8701,-0.0196 0.2708,-0.0103 0.5407,-0.0375 0.8082,-0.0814 v -2.2286 c -0.1403,0.0297 -0.2823,0.0503 -0.4253,0.0618 -0.1507,0.0136 -0.3015,0.0211 -0.4644,0.0211 -0.484,0 -0.8082,-0.0829 -0.971,-0.2443 -0.1629,-0.1613 -0.2413,-0.484 -0.2413,-0.9695 v -5.1749 h 2.102 v -1.921 h -2.1065 z m 11.8622,9.0047999 c -0.1882,-0.3278 -0.4455,-0.6108 -0.7539,-0.8293 -0.3239,-0.2293 -0.6794,-0.4101 -1.0555,-0.5368 -0.3966,-0.1327 -0.8052,-0.2473 -1.2229,-0.3423 -0.4176,-0.095 -0.8006,-0.1824 -1.1912,-0.2623 -0.3522,-0.071 -0.7001,-0.1621 -1.0419,-0.2729 -0.2687,-0.0824 -0.5187,-0.2166 -0.7358,-0.3951 -0.0918,-0.0758 -0.1651,-0.1716 -0.2142,-0.28 -0.0492,-0.1085 -0.0728,-0.2267 -0.0693,-0.3457 -0.0108,-0.1842 0.0449,-0.3661 0.1568,-0.5127 0.1063,-0.1301 0.2416,-0.2333 0.3951,-0.3016 0.164,-0.0689 0.3372,-0.1131 0.5142,-0.1312 0.1754,-0.0156 0.3516,-0.0221 0.5277,-0.0196 0.4624,-0.0117 0.9208,0.0886 1.336,0.2926 0.3754,0.1945 0.585,0.5684 0.6242,1.1218 h 2.7292 c -0.0294,-0.5691 -0.1999,-1.122 -0.4961,-1.6089 -0.265,-0.4142 -0.6208,-0.7628 -1.0404,-1.0193 -0.439,-0.2646 -0.9214,-0.4494 -1.4249,-0.5458 -0.5415,-0.109 -1.0927,-0.163 -1.6451,-0.1614 -0.5563,-6e-4 -1.1115,0.0499 -1.6586,0.1508 -0.5115,0.0911 -1.0036,0.2691 -1.455,0.5263 -0.4282,0.2453 -0.7864,0.5962 -1.0405,1.0193 -0.2811,0.5062 -0.4173,1.0801 -0.3935,1.6586 -0.0129,0.4061 0.0851,0.808 0.2835,1.1625 0.1884,0.3165 0.4462,0.5861 0.7539,0.7886 0.3267,0.2166 0.6819,0.3866 1.0555,0.5052 0.3965,0.1281 0.8052,0.2397 1.2213,0.3332 0.8134,0.1576 1.6142,0.3743 2.396,0.6484 0.573,0.2141 0.8595,0.5373 0.8595,0.9695 0.0089,0.2262 -0.055,0.4493 -0.1825,0.6363 -0.1191,0.1664 -0.2736,0.3044 -0.4523,0.4041 -0.1888,0.1038 -0.3922,0.1785 -0.6032,0.2217 -0.2089,0.0468 -0.4222,0.071 -0.6363,0.0723 -0.2755,6e-4 -0.5501,-0.0334 -0.8172,-0.101 -0.2496,-0.062 -0.4861,-0.1682 -0.6982,-0.3136 -0.2034,-0.1433 -0.3728,-0.3297 -0.496,-0.5458 -0.1328,-0.2451 -0.1988,-0.5206 -0.1915,-0.7992 h -2.7383 c 0.0029,0.6145 0.1666,1.2176 0.475,1.7491 0.2792,0.4544 0.6595,0.8383 1.1113,1.1218 0.4757,0.2914 0.9996,0.4957 1.547,0.6032 0.5841,0.1224 1.1794,0.1836 1.7762,0.1824 0.5873,6e-4 1.1732,-0.057 1.7491,-0.1719 0.5419,-0.1041 1.0594,-0.3087 1.526,-0.6031 0.481,-0.2982 0.8733,-0.7198 1.1361,-1.221 0.2628,-0.5012 0.3865,-1.0636 0.3581,-1.6288 0.0135,-0.4228 -0.0837,-0.8417 -0.2819,-1.2154 z m 5.6981,-9.8552199 -5.4553,14.4330199 h 3.1921 l 1.1324,-3.2132 h 5.395 l 1.09,3.2132 h 3.296 l -5.399,-14.4300099 z m -0.3015,8.8540199 1.8807,-5.2955 h 0.039 l 1.82,5.2955 z m 18.8627,-3.4529 c -0.394,-0.5161 -0.898,-0.9375 -1.476,-1.2334 -0.658,-0.3251 -1.386,-0.4845 -2.12,-0.4645 -0.614,-0.0078 -1.222,0.1231 -1.779,0.383 -0.554,0.2737 -1.016,0.7042 -1.327,1.238 h -0.041 v -1.339 h -2.729 v 14.1104 h 2.865 v -4.9518 h 0.039 c 0.337,0.5003 0.801,0.9012 1.345,1.1611 0.559,0.2658 1.17,0.4009 1.788,0.395 0.697,0.0133 1.387,-0.1419 2.01,-0.4523 0.561,-0.2872 1.052,-0.695 1.436,-1.1942 0.392,-0.5136 0.683,-1.0962 0.859,-1.7175 0.189,-0.6568 0.284,-1.337 0.282,-2.0205 0.003,-0.7206 -0.092,-1.4383 -0.282,-2.1336 -0.174,-0.6436 -0.469,-1.248 -0.87,-1.7807 z m -1.838,5.0738 c -0.071,0.3746 -0.212,0.7326 -0.414,1.0555 -0.343,0.481 -0.848,0.8211 -1.423,0.957 -0.574,0.136 -1.179,0.0584 -1.7,-0.2181 -0.315,-0.1806 -0.582,-0.434 -0.778,-0.7389 -0.204,-0.3233 -0.347,-0.6809 -0.424,-1.0555 -0.088,-0.4046 -0.132,-0.8177 -0.131,-1.2319 -0.001,-0.421 0.039,-0.8412 0.119,-1.2545 0.073,-0.3796 0.214,-0.7429 0.416,-1.0721 0.194,-0.3077 0.457,-0.5658 0.768,-0.7539 0.358,-0.2096 0.767,-0.3142 1.182,-0.3015 0.408,-0.011 0.81,0.0935 1.161,0.3015 0.315,0.1925 0.581,0.4551 0.778,0.7675 0.208,0.3316 0.355,0.6977 0.434,1.0811 0.089,0.4057 0.133,0.8198 0.131,1.235 0.003,0.4123 -0.035,0.8239 -0.113,1.2288 z m 14.145,-3.2855 c -0.172,-0.6465 -0.467,-1.2537 -0.87,-1.7883 -0.393,-0.516 -0.897,-0.9374 -1.474,-1.2334 -0.659,-0.3248 -1.387,-0.4842 -2.122,-0.4645 -0.614,-0.0073 -1.221,0.1236 -1.778,0.383 -0.554,0.2741 -1.016,0.7045 -1.328,1.238 h -0.039 v -1.339 h -2.735 v 14.1104 h 2.864 v -4.9518 h 0.041 c 0.336,0.4999 0.8,0.9007 1.344,1.1611 0.558,0.2658 1.17,0.4009 1.788,0.395 0.697,0.0133 1.387,-0.1419 2.011,-0.4523 0.561,-0.2872 1.051,-0.6951 1.434,-1.1942 0.392,-0.5136 0.684,-1.0962 0.86,-1.7175 0.19,-0.6566 0.285,-1.3369 0.283,-2.0205 0.006,-0.7177 -0.086,-1.4329 -0.273,-2.126 z m -2.714,3.2855 c -0.07,0.3748 -0.211,0.7329 -0.414,1.0555 -0.212,0.3242 -0.501,0.5905 -0.842,0.7748 -0.34,0.1843 -0.722,0.2809 -1.109,0.2809 -0.387,0 -0.768,-0.0966 -1.109,-0.2809 -0.34,-0.1843 -0.629,-0.4506 -0.841,-0.7748 -0.203,-0.3236 -0.347,-0.6811 -0.424,-1.0555 -0.087,-0.4047 -0.131,-0.8177 -0.131,-1.2319 -10e-4,-0.4211 0.039,-0.8412 0.121,-1.2545 0.078,-0.3808 0.225,-0.7442 0.434,-1.0721 0.194,-0.307 0.457,-0.565 0.767,-0.7539 0.358,-0.2096 0.768,-0.3142 1.182,-0.3015 0.408,-0.0112 0.811,0.0934 1.161,0.3015 0.316,0.1924 0.583,0.4551 0.78,0.7675 0.208,0.3316 0.355,0.6977 0.434,1.0811 0.089,0.4057 0.133,0.8198 0.131,1.235 -0.002,0.4128 -0.045,0.8244 -0.128,1.2288 z"
     fill="#25d366"
     id="path2" />
  <path
     d="m 29.72308,14.324537 c -0.14,-3.8314 -1.7545,-7.4605399 -4.5066,-10.1297399 -2.7521,-2.6692 -6.4289,-4.17207299 -10.2627,-4.1947929874302 h -0.0724 C 12.29958,-0.00191389 9.7618799,0.66837711 7.5177499,1.9449171 c -2.24408,1.27654 -4.11715,3.11534 -5.4349,5.33547 -1.31775003,2.22014 -2.03477003,4.7451499 -2.08051503,7.3264499 -0.045744,2.5814 0.581365,5.1301 1.81962503,7.3956 l -1.31484003,7.8679 c -0.00214,0.0161 -8.2e-4,0.0325 0.00388,0.0481 0.00469,0.0156 0.01266,0.03 0.02336,0.0423 0.0107,0.0123 0.02389,0.0221 0.03869,0.0289 0.0148,0.0068 0.03088,0.0103 0.04716,0.0104 h 0.02262 l 7.78196003,-1.731 c 2.0106901,0.9653 4.2125901,1.4662 6.4429901,1.4656 0.1418,0 0.2835,0 0.4252,0 1.962,-0.056 3.8935,-0.5 5.6829,-1.3064 1.7895,-0.8064 3.4015,-1.9592 4.7431,-3.3919 1.3416,-1.4327 2.3862,-3.1169 3.0734,-4.9555 0.6872,-1.8385 1.0035,-3.7949 0.9307,-5.7563 z m -14.504,12.8241 c -0.1176,0 -0.2352,0 -0.3513,0 -1.9712,0.0025 -3.9142,-0.4692 -5.6649401,-1.3751 l -0.39807,-0.2081 -5.27744,1.247 0.97406,-5.3393 -0.22617,-0.383 c -1.08025,-1.8417 -1.66211,-3.9331 -1.68826,-6.0682 -0.02615,-2.135 0.5043,-4.2401 1.53911,-6.1077499 1.03482,-1.86769 2.53829,-3.4336 4.36235,-4.54351 1.8240601,-1.10992 3.9057601,-1.72554 6.0401601,-1.78623 0.1186,0 0.2377,0 0.3573,0 3.2225,0.00955 6.3122,1.28463 8.6035,3.55053 2.2913,2.26589 3.6008,5.3412599 3.6463,8.5633599 0.0454,3.2222 -1.1767,6.3332 -3.4031,8.6629 -2.2265,2.3297 -5.279,3.6915 -8.4999,3.792 z"
     fill="#25d366"
     id="path4" />
  <path
     d="m 9.6985799,7.6900671 c -0.1837,0.00359 -0.36484,0.044 -0.53267,0.11885 -0.16783,0.07485 -0.31894,0.18262 -0.44437,0.31692 -0.35435,0.36339 -1.345,1.23794 -1.4023,3.0744999 -0.05729,1.8365 1.22588,3.6535 1.40531,3.9083 0.17944,0.2548 2.4532301,4.222 6.1987301,5.8308 2.2015,0.9485 3.1665,1.1113 3.7922,1.1113 0.2579,0 0.4524,-0.0271 0.6559,-0.0392 0.6861,-0.0422 2.2347,-0.8353 2.5724,-1.6978 0.3378,-0.8625 0.3604,-1.6164 0.2714,-1.7672 -0.0889,-0.1508 -0.3332,-0.2594 -0.7011,-0.4524 -0.3679,-0.193 -2.1728,-1.158 -2.5121,-1.2937 -0.1258,-0.0586 -0.2612,-0.0938 -0.3996,-0.104 -0.0901,0.0047 -0.1777,0.0313 -0.2552,0.0776 -0.0775,0.0462 -0.1426,0.1107 -0.1896,0.1877 -0.3015,0.3755 -0.9936,1.1912 -1.2259,1.4265 -0.0507,0.0584 -0.1132,0.1055 -0.1833,0.1383 -0.0701,0.0327 -0.1464,0.0503 -0.2238,0.0517 -0.1426,-0.0063 -0.2821,-0.0439 -0.4086,-0.1101 -1.0933,-0.4643 -2.0901,-1.1292 -2.9388,-1.9602 -0.793,-0.7816 -1.4658,-1.6764 -1.9964,-2.6553 -0.205,-0.38 0,-0.576 0.187,-0.7539 0.187,-0.178 0.3875,-0.4237 0.5805,-0.6364 0.1584,-0.1816 0.2904,-0.3846 0.3921,-0.6031 0.0526,-0.1014 0.0792,-0.2143 0.0773,-0.3285 -0.0018,-0.1143 -0.032,-0.2262 -0.0879,-0.3259 -0.0889,-0.19 -0.7539,-2.0581899 -1.066,-2.8075899 -0.2533,-0.64083 -0.5549,-0.66194 -0.8188,-0.68154 -0.2171,-0.01508 -0.4659001,-0.02262 -0.7147001,-0.03016 h -0.0317"
     fill="#25d366"
     id="path6" />
</svg>
