<?xml version="1.0" encoding="UTF-8" standalone="no"?>
<!-- Created with Inkscape (http://www.inkscape.org/) -->

<svg
   width="7.8667374mm"
   height="7.9380951mm"
   viewBox="0 0 7.8667374 7.9380951"
   version="1.1"
   id="svg254"
   xmlns="http://www.w3.org/2000/svg"
   xmlns:svg="http://www.w3.org/2000/svg">
  <defs
     id="defs251" />
  <g
     id="layer1"
     transform="translate(-101.04948,-144.70057)">
    <path
       d="m 108.91366,148.4906 c -0.037,-1.01372 -0.46421,-1.97393 -1.19237,-2.68016 -0.72816,-0.70622 -1.70098,-1.10386 -2.71534,-1.10987 h -0.0191 c -0.68311,-5.1e-4 -1.35454,0.17684 -1.9483,0.51459 -0.59374,0.33775 -1.08933,0.82427 -1.43798,1.41168 -0.34866,0.58741 -0.53837,1.25549 -0.55047,1.93846 -0.0121,0.68299 0.15382,1.35734 0.48144,1.95675 l -0.34788,2.08171 c -5.7e-4,0.004 -2.2e-4,0.009 10e-4,0.0127 0.001,0.004 0.003,0.008 0.006,0.0112 0.003,0.003 0.006,0.006 0.0102,0.008 0.004,0.002 0.008,0.003 0.0125,0.003 h 0.006 l 2.05898,-0.45799 c 0.532,0.2554 1.11458,0.38793 1.70471,0.38777 0.0375,0 0.075,0 0.1125,0 0.51911,-0.0148 1.03015,-0.13229 1.5036,-0.34565 0.47347,-0.21336 0.89998,-0.51837 1.25494,-0.89744 0.35497,-0.37907 0.63135,-0.82468 0.81317,-1.31114 0.18183,-0.48644 0.26551,-1.00407 0.24625,-1.52303 z m -3.83751,3.39305 c -0.0311,0 -0.0622,0 -0.093,0 -0.52155,6.6e-4 -1.03563,-0.12415 -1.49885,-0.36383 l -0.10532,-0.0551 -1.39633,0.32993 0.25772,-1.41269 -0.0598,-0.10133 c -0.28581,-0.48728 -0.43976,-1.04063 -0.44668,-1.60555 -0.007,-0.56488 0.13343,-1.12186 0.40722,-1.616 0.2738,-0.49416 0.67159,-0.90848 1.15421,-1.20214 0.48261,-0.29367 1.03339,-0.45655 1.59812,-0.47261 0.0314,0 0.0629,0 0.0945,0 0.85262,0.003 1.6701,0.33989 2.27634,0.93941 0.60624,0.59952 0.95271,1.41321 0.96475,2.26573 0.012,0.85254 -0.31134,1.67565 -0.9004,2.29205 -0.5891,0.6164 -1.39674,0.97671 -2.24894,1.0033 z"
       fill="#25d366"
       id="path4"
       style="stroke-width:0.264583" />
    <path
       d="m 103.61551,146.73523 c -0.0486,9.5e-4 -0.0965,0.0117 -0.14093,0.0315 -0.0444,0.0198 -0.0844,0.0483 -0.11757,0.0838 -0.0938,0.0961 -0.35587,0.32754 -0.37103,0.81346 -0.0152,0.48591 0.32435,0.96666 0.37182,1.03407 0.0475,0.0674 0.64909,1.11707 1.64008,1.54274 0.58248,0.25095 0.83781,0.29403 1.00336,0.29403 0.0682,0 0.11969,-0.007 0.17354,-0.0104 0.18153,-0.0112 0.59126,-0.22101 0.68061,-0.44921 0.0894,-0.22821 0.0954,-0.42768 0.0718,-0.46757 -0.0235,-0.0399 -0.0882,-0.0686 -0.1855,-0.1197 -0.0973,-0.0511 -0.57489,-0.30639 -0.66466,-0.34229 -0.0333,-0.0155 -0.0691,-0.0248 -0.10573,-0.0275 -0.0238,0.001 -0.047,0.008 -0.0675,0.0205 -0.0205,0.0122 -0.0377,0.0293 -0.0502,0.0497 -0.0798,0.0994 -0.26289,0.31518 -0.32435,0.37743 -0.0134,0.0155 -0.0299,0.0279 -0.0485,0.0366 -0.0185,0.009 -0.0387,0.0133 -0.0592,0.0137 -0.0377,-0.002 -0.0746,-0.0116 -0.10811,-0.0291 -0.28927,-0.12284 -0.553,-0.29877 -0.77756,-0.51863 -0.20981,-0.2068 -0.38782,-0.44355 -0.52821,-0.70255 -0.0542,-0.10054 0,-0.1524 0.0495,-0.19947 0.0495,-0.0471 0.10252,-0.11211 0.15359,-0.16838 0.0419,-0.048 0.0768,-0.10176 0.10374,-0.15957 0.0139,-0.0268 0.0209,-0.0567 0.0204,-0.0869 -4.7e-4,-0.0302 -0.008,-0.0598 -0.0233,-0.0862 -0.0235,-0.0503 -0.19947,-0.54456 -0.28205,-0.74284 -0.067,-0.16955 -0.14682,-0.17514 -0.21664,-0.18032 -0.0574,-0.004 -0.12327,-0.006 -0.1891,-0.008 h -0.008"
       fill="#25d366"
       id="path6"
       style="stroke-width:0.264583" />
  </g>
</svg>
